<?xml version="1.0" encoding="UTF-8"?>
<svg id="b" data-name="图层 2" xmlns="http://www.w3.org/2000/svg" xmlns:xlink="http://www.w3.org/1999/xlink" viewBox="0 0 216.85 52.57">
  <defs>
    <style>
      .f, .g {
        fill: none;
      }

      .h {
        font-family: Times-Roman, Times;
        font-size: 9px;
      }

      .h, .i {
        fill: #231815;
      }

      .g {
        stroke: #231815;
        stroke-miterlimit: 10;
        stroke-width: .5px;
      }

      .j {
        fill: #d3d3d4;
      }

      .k {
        clip-path: url(#e);
      }

      .l {
        clip-path: url(#d);
      }
    </style>
    <clipPath id="d">
      <rect class="f" width="216.85" height="52.57"/>
    </clipPath>
    <clipPath id="e">
      <rect class="f" width="216.85" height="52.57"/>
    </clipPath>
  </defs>
  <g id="c" data-name="图层 1">
    <g>
      <path class="j" d="M118.87,26.9l-.22-.39.22.39Z"/>
      <path class="j" d="M119.08,27.3l-.21-.4.21.4Z"/>
      <path class="j" d="M119.29,27.7l-.21-.4.21.4Z"/>
      <path class="j" d="M119.49,28.1l-.2-.4.2.4Z"/>
      <path class="j" d="M119.69,28.51l-.19-.41.19.41Z"/>
      <path class="j" d="M119.87,28.92l-.19-.41.19.41Z"/>
      <path class="j" d="M120.05,29.33l-.18-.41.18.41Z"/>
      <path class="j" d="M120.23,29.75l-.17-.42.17.42Z"/>
      <path class="j" d="M120.39,30.17l-.17-.42.17.42Z"/>
      <path class="j" d="M120.55,30.59l-.16-.42.16.42Z"/>
      <path class="j" d="M120.7,31.01l-.15-.43.15.43Z"/>
      <path class="j" d="M120.84,31.44l-.14-.43.14.43Z"/>
      <path class="j" d="M120.98,31.87l-.13-.43.13.43Z"/>
      <path class="j" d="M121.11,32.3l-.13-.43.13.43Z"/>
      <path class="j" d="M121.23,32.74l-.12-.43.12.43Z"/>
      <path class="j" d="M121.34,33.17l-.11-.44.11.44Z"/>
      <path class="j" d="M121.44,33.61l-.1-.44.1.44Z"/>
      <path class="j" d="M121.54,34.05l-.1-.44.1.44Z"/>
      <path class="j" d="M121.63,34.49l-.09-.44.09.44Z"/>
      <path class="j" d="M121.71,34.94l-.08-.44.08.44Z"/>
      <path class="j" d="M121.79,35.38l-.07-.44.07.44Z"/>
      <path class="j" d="M121.85,35.82l-.07-.45.07.45Z"/>
      <path class="j" d="M121.91,36.27l-.06-.45.06.45Z"/>
      <path class="j" d="M121.96,36.72l-.05-.45.05.45Z"/>
      <path class="j" d="M122.01,37.17l-.04-.45.04.45Z"/>
      <path class="j" d="M122.04,37.62l-.04-.45.04.45Z"/>
      <path class="j" d="M122.07,38.07l-.03-.45.03.45Z"/>
      <path class="j" d="M122.09,38.52l-.02-.45.02.45Z"/>
      <path class="j" d="M122.1,38.97v-.45s0,.45,0,.45Z"/>
      <path class="j" d="M122.11,39.42v-.45s0,.45,0,.45Z"/>
      <path class="j" d="M122.1,39.87v-.45s0,.45,0,.45Z"/>
      <path class="j" d="M122.09,40.32v-.45s0,.45,0,.45Z"/>
      <path class="j" d="M122.07,40.77l.02-.45-.02.45Z"/>
      <path class="j" d="M122.04,41.22l.03-.45-.03.45Z"/>
      <path class="j" d="M122.01,41.67l.04-.45-.04.45Z"/>
      <path class="j" d="M121.96,42.12l.04-.45-.04.45Z"/>
      <path class="j" d="M121.91,42.56l.05-.45-.05.45Z"/>
      <path class="j" d="M121.85,43.01l.06-.45-.06.45Z"/>
      <path class="j" d="M121.79,43.46l.07-.45-.07.45Z"/>
      <path class="j" d="M121.71,43.9l.07-.44-.07.44Z"/>
      <path class="j" d="M121.63,44.34l.08-.44-.08.44Z"/>
      <path class="j" d="M121.54,44.78l.09-.44-.09.44Z"/>
      <path class="j" d="M121.44,45.22l.1-.44-.1.44Z"/>
      <path class="j" d="M121.34,45.66l.1-.44-.1.44Z"/>
      <path class="j" d="M121.23,46.1l.11-.44-.11.44Z"/>
      <path class="j" d="M121.11,46.53l.12-.43-.12.43Z"/>
      <path class="j" d="M120.98,46.97l.13-.43-.13.43Z"/>
      <path class="j" d="M120.84,47.39l.13-.43-.13.43Z"/>
      <path class="j" d="M120.7,47.82l.14-.43-.14.43Z"/>
      <path class="j" d="M120.55,48.25l.15-.43-.15.43Z"/>
      <path class="j" d="M120.39,48.67l.16-.42-.16.42Z"/>
      <path class="j" d="M120.23,49.09l.17-.42-.17.42Z"/>
      <path class="j" d="M120.05,49.5l.17-.42-.17.42Z"/>
      <path class="j" d="M119.87,49.92l.18-.41-.18.41Z"/>
      <path class="j" d="M119.69,50.33l.19-.41-.19.41Z"/>
      <path class="j" d="M119.49,50.73l.19-.41-.19.41Z"/>
      <path class="j" d="M119.29,51.14l.2-.4-.2.4Z"/>
      <path class="j" d="M119.08,51.54l.21-.4-.21.4Z"/>
      <path class="j" d="M118.87,51.93l.21-.4-.21.4Z"/>
      <path class="j" d="M118.65,52.32l.22-.39-.22.39Z"/>
      <g class="l">
        <path class="j" d="M135.85,26.51c9.22,0,17.74,4.92,22.34,12.91-4.61,7.99-13.13,12.91-22.34,12.91h-12.9c1.93-4.1,2.92-8.48,2.92-12.89s-.99-8.8-2.92-12.89l12.9-.03Z"/>
        <path class="g" d="M158.61,39.42h31.4M8.96,44.79l112.42-1.07M9.13,5.41h189.76M135.85,26.51c9.22,0,17.74,4.92,22.34,12.91-4.61,7.99-13.13,12.91-22.34,12.91h-12.9c1.93-4.1,2.92-8.48,2.92-12.89s-.99-8.8-2.92-12.89l12.9-.03ZM118.65,52.33l.22-.39M118.87,51.93l.21-.4M119.08,51.54l.21-.4M119.29,51.14l.2-.4M119.49,50.73l.19-.41M119.69,50.33l.19-.41M119.88,49.92l.18-.41M120.05,49.5l.17-.42M120.23,49.09l.17-.42M120.39,48.67l.16-.42M120.55,48.25l.15-.42M120.7,47.82l.14-.43M120.84,47.39l.13-.43M120.98,46.97l.13-.43M121.11,46.53l.12-.43M121.23,46.1l.11-.44M121.34,45.66l.11-.44M121.44,45.22l.1-.44M121.54,44.78l.09-.44M121.63,44.34l.08-.44M121.71,43.9l.07-.44M121.79,43.46l.07-.45M121.85,43.01l.06-.45M121.91,42.56l.05-.45M121.96,42.12l.04-.45M122.01,41.67l.04-.45M122.04,41.22l.03-.45M122.07,40.77l.02-.45M122.09,40.32v-.45M122.1,39.87v-.45M122.1,39.42v-.45M122.1,38.97v-.45M122.09,38.52l-.02-.45M122.07,38.07l-.03-.45M122.04,37.62l-.04-.45M122.01,37.17l-.04-.45M121.96,36.72l-.05-.45M121.91,36.27l-.06-.45M121.85,35.82l-.07-.45M121.79,35.38l-.07-.44M121.71,34.93l-.08-.44M121.63,34.49l-.09-.44M121.54,34.05l-.1-.44M121.44,33.61l-.11-.44M121.34,33.17l-.11-.44M121.23,32.74l-.12-.43M121.11,32.3l-.13-.43M120.98,31.87l-.13-.43M120.84,31.44l-.14-.43M120.7,31.01l-.15-.43M120.55,30.59l-.16-.42M120.39,30.17l-.17-.42M120.23,29.75l-.17-.42M120.05,29.33l-.18-.41M119.88,28.92l-.19-.41M119.69,28.51l-.19-.41M119.49,28.1l-.2-.4M119.29,27.7l-.21-.4M119.08,27.3l-.21-.4M118.87,26.9l-.22-.39"/>
        <path class="i" d="M71.72,5.41c0-.93-.76-1.69-1.69-1.69s-1.69.76-1.69,1.69.76,1.69,1.69,1.69,1.69-.76,1.69-1.69"/>
        <polyline class="g" points="70.03 5.41 70.03 35 121.38 35.12"/>
        <text class="h" transform="translate(0 7.47)"><tspan x="0" y="0">x</tspan></text>
        <text class="h" transform="translate(.47 45.99)"><tspan x="0" y="0">y</tspan></text>
      </g>
      <text class="h" transform="translate(194.22 41.38)"><tspan x="0" y="0">x</tspan></text>
      <g class="k">
        <path class="i" d="M205.51,42.31c-1.76,0-3.19-1.44-3.19-3.19s1.42-3.19,3.19-3.19,3.18,1.42,3.18,3.19-1.44,3.19-3.18,3.19M205.37,38.98v-2.76c-1.49.08-2.68,1.28-2.76,2.76h2.76ZM205.37,39.26h-2.76c.09,1.53,1.29,2.69,2.76,2.77v-2.77ZM205.65,38.98h2.76c-.08-1.49-1.26-2.68-2.76-2.76v2.76ZM205.65,39.26v2.77c1.45-.08,2.67-1.22,2.76-2.77h-2.76Z"/>
        <text class="h" transform="translate(212.35 41.38)"><tspan x="0" y="0">y</tspan></text>
        <text class="h" transform="translate(203.11 7.47)"><tspan x="0" y="0">x</tspan></text>
      </g>
    </g>
  </g>
</svg>