<?xml version="1.0" encoding="UTF-8"?>
<svg id="b" data-name="图层 2" xmlns="http://www.w3.org/2000/svg" xmlns:xlink="http://www.w3.org/1999/xlink" viewBox="0 0 82.92 113.49">
  <defs>
    <style>
      .e, .f, .g {
        fill: none;
      }

      .h {
        font-family: Times-Roman, Times;
        font-size: 9px;
      }

      .h, .i {
        fill: #231815;
      }

      .f {
        stroke-linecap: round;
        stroke-linejoin: round;
      }

      .f, .g {
        stroke: #231815;
        stroke-width: .5px;
      }

      .g {
        stroke-miterlimit: 10;
      }

      .j {
        fill: #fff;
      }

      .k {
        clip-path: url(#d);
      }
    </style>
    <clipPath id="d">
      <polyline class="e" points="0 113.49 82.92 113.49 82.92 0 0 0"/>
    </clipPath>
  </defs>
  <g id="c" data-name="图层 1">
    <g>
      <line class="g" x1="2.17" y1="113.31" x2="2.17" y2=".7"/>
      <g class="k">
        <path class="f" d="M.25,2.04c.72-.12,1.8-1.43,1.92-1.79.12.36,1.2,1.67,1.92,1.79"/>
        <line class="g" x1="2.17" y1="113.31" x2="82.17" y2="33.68"/>
        <path class="f" d="M79.96,33.17c.59.42,2.29.25,2.62.08-.17.34-.34,2.02.09,2.61"/>
        <path class="j" d="M66.42,81.33c8.87-8.83,8.87-23.15,0-31.98-8.87-8.83-23.26-8.83-32.13,0-8.87,8.83-8.87,23.15,0,31.98,8.87,8.83,23.26,8.83,32.13,0"/>
        <path class="g" d="M2.17,96.35c4.52,0,8.85,1.79,11.72,4.64M34.3,49.35l32.13,31.98M66.42,81.33c8.87-8.83,8.87-23.15,0-31.98-8.87-8.83-23.26-8.83-32.13,0-8.87,8.83-8.87,23.15,0,31.98,8.87,8.83,23.26,8.83,32.13,0Z"/>
        <path class="f" d="M14.4,98.8c-.42.59-.25,2.28-.08,2.61-.34-.17-2.03-.34-2.62.08"/>
      </g>
      <text class="h" transform="translate(52.88 58.31) rotate(44.87) skewX(-.27)"><tspan x="0" y="0">N</tspan></text>
      <text class="h" transform="translate(37.94 73.83) rotate(44.87) skewX(-.27)"><tspan x="0" y="0">S</tspan></text>
      <g>
        <path class="i" d="M8.13,94.25c-.91,0-1.2-1.1-1.2-2.04,0-2.28,1.54-5.08,2.92-5.08,1.02,0,1.2,1.38,1.2,2.04,0,2.23-1.52,5.08-2.92,5.08M7.91,90.86c-.26.97-.32,1.55-.32,1.97,0,.92.21,1.21.54,1.21.43,0,.81-.49,1.16-1.16.38-.72.59-1.56.7-2.02h-2.08ZM10.07,90.54c.24-.98.32-1.49.32-1.98,0-.57-.06-1.2-.55-1.2-.45,0-.82.56-1.09,1.04-.4.7-.6,1.5-.77,2.14h2.09Z"/>
        <path class="i" d="M13.51,90.29c-.81,0-1.5-.65-1.5-1.49s.66-1.49,1.5-1.49,1.5.65,1.5,1.5-.66,1.49-1.5,1.49M14.67,88.79c0-.62-.5-1.15-1.15-1.15s-1.15.51-1.15,1.15.5,1.15,1.15,1.15,1.15-.51,1.15-1.15"/>
      </g>
    </g>
  </g>
</svg>