<?xml version="1.0" encoding="UTF-8"?>
<svg id="b" data-name="图层 2" xmlns="http://www.w3.org/2000/svg" viewBox="0 0 23.18 56.8">
  <defs>
    <style>
      .d {
        fill: #231815;
        font-family: Times-Roman, Times;
        font-size: 9px;
      }

      .e {
        stroke-linecap: round;
        stroke-linejoin: round;
      }

      .e, .f {
        fill: none;
        stroke: #231815;
        stroke-width: .5px;
      }

      .f {
        stroke-miterlimit: 10;
      }

      .g {
        fill: #fff;
      }
    </style>
  </defs>
  <g id="c" data-name="图层 1">
    <g>
      <g>
        <path class="f" d="M11.59,56.8V.7"/>
        <path class="e" d="M9.68,2.04c.72-.12,1.79-1.43,1.91-1.79.12.36,1.2,1.67,1.91,1.79"/>
        <path class="g" d="M22.93,28.52c0-6.25-5.08-11.31-11.34-11.31S.25,22.27.25,28.52s5.08,11.31,11.34,11.31,11.34-5.06,11.34-11.31"/>
        <path class="f" d="M.25,28.52h22.68M22.93,28.52c0-6.25-5.08-11.31-11.34-11.31S.25,22.27.25,28.52s5.08,11.31,11.34,11.31,11.34-5.06,11.34-11.31Z"/>
      </g>
      <text class="d" transform="translate(8.87 26.25)"><tspan x="0" y="0">S</tspan></text>
      <text class="d" transform="translate(8.11 37.17)"><tspan x="0" y="0">N</tspan></text>
    </g>
  </g>
</svg>