<?xml version="1.0" encoding="UTF-8"?>
<svg id="b" data-name="图层 2" xmlns="http://www.w3.org/2000/svg" xmlns:xlink="http://www.w3.org/1999/xlink" viewBox="0 0 276.27 191.22">
  <defs>
    <style>
      .e, .f, .g, .h, .i {
        fill: none;
      }

      .j {
        font-size: 7px;
      }

      .j, .k {
        font-family: Times-Roman, Times;
      }

      .j, .k, .l {
        fill: #231815;
      }

      .f {
        stroke-width: .64px;
      }

      .f, .g {
        stroke-linecap: round;
        stroke-linejoin: round;
      }

      .f, .g, .h, .i {
        stroke: #231815;
      }

      .g {
        stroke-width: .64px;
      }

      .h {
        stroke-width: .5px;
      }

      .h, .i {
        stroke-miterlimit: 10;
      }

      .i {
        stroke-width: .75px;
      }

      .k, .l {
        font-size: 10px;
      }

      .l {
        font-family: TimesNewRomanPSMT, 'Times New Roman';
      }

      .m {
        clip-path: url(#d);
      }
    </style>
    <clipPath id="d">
      <rect class="e" width="276.27" height="191.22"/>
    </clipPath>
  </defs>
  <g id="c" data-name="图层 1">
    <g>
      <path class="h" d="M110.42,129.38l61.33-6.14,3.07,12.28M122.69,178.5l-12.27-12.28v-36.84M122.69,141.66l-6.13,6.14-6.13-18.42M122.69,178.5v-36.84l61.33-6.14v36.84l-61.33,6.14M184.02,74.12l-6.13,6.14-61.33,6.14M122.69,43.42l-12.27-12.28,61.33-6.14,12.27,12.28M110.42,67.98l6.13,18.42,6.13-6.14M110.42,67.98V31.14M122.69,80.26v-36.84l61.33-6.14v36.84l-61.33,6.14"/>
      <g class="m">
        <path class="i" d="M122.69,110.96c30.67-3.07,61.33-6.14,109.83-60.76M61.36,117.1l61.33-6.14"/>
        <path class="g" d="M229.41,49.94c.81.51,3,.16,3.43-.09-.19.46-.29,2.68.31,3.42"/>
        <ellipse class="i" cx="242.64" cy="49.56" rx="9.3" ry="9.31"/>
        <line class="h" x1="233.57" y1="49.56" x2="251.7" y2="49.56"/>
        <path class="i" d="M122.69,110.96c30.67-3.07,61.33-6.14,109.8,42.38"/>
        <path class="f" d="M232.93,150.25c-.55.77-.33,2.97-.11,3.42-.44-.22-2.64-.44-3.41.11"/>
        <path class="i" d="M233.33,153.94c0,5.14,4.17,9.31,9.3,9.31s9.3-4.17,9.3-9.31-4.17-9.31-9.3-9.31-9.3,4.17-9.3,9.31Z"/>
        <line class="h" x1="251.7" y1="153.94" x2="233.57" y2="153.94"/>
        <line class="i" x1="122.69" y1="110.96" x2="232.24" y2="100.6"/>
        <path class="f" d="M230.15,98.3c.24.92,2.08,2.15,2.56,2.26-.45.2-2.02,1.76-2.09,2.7"/>
        <ellipse class="i" cx="242.64" cy="100.52" rx="9.3" ry="9.31"/>
        <path class="h" d="M214.69,153.94V.44l61.33,36.84v153.5l-61.33-36.84M6.16,147.8l60.72-6.14-1.84-18.42M.03,98.68l61.95-6.14,1.84,18.42M242.64,109.6v-18.15"/>
      </g>
      <text class="l" transform="translate(141.67 62.71) rotate(-4.51)"><tspan x="0" y="0">South</tspan></text>
      <text/>
      <text class="l" transform="translate(141.06 161.62) rotate(-4.51)"><tspan x="0" y="0">North</tspan></text>
      <text/>
      <text class="j" transform="translate(239.75 47.52)"><tspan x="0" y="0">N</tspan></text>
      <text class="j" transform="translate(240.7 56.5)"><tspan x="0" y="0">S</tspan></text>
      <text class="j" transform="translate(245.91 155.98) rotate(-180)"><tspan x="0" y="0">N</tspan></text>
      <text class="j" transform="translate(244.97 147.21) rotate(-180)"><tspan x="0" y="0">S</tspan></text>
      <text class="j" transform="translate(240.4 103.57) rotate(-90)"><tspan x="0" y="0">N</tspan></text>
      <text class="j" transform="translate(249.16 102.99) rotate(-90)"><tspan x="0" y="0">S</tspan></text>
      <text class="k" transform="translate(17.35 124.6) rotate(-4.51)"><tspan x="0" y="0">Source</tspan></text>
    </g>
  </g>
</svg>