<?xml version="1.0" encoding="UTF-8"?>
<svg id="b" data-name="图层 2" xmlns="http://www.w3.org/2000/svg" viewBox="0 0 23.16 56.91">
  <defs>
    <style>
      .d {
        fill: #231815;
        font-family: Times-Roman, Times;
        font-size: 9px;
      }

      .e {
        stroke-linecap: round;
        stroke-linejoin: round;
      }

      .e, .f {
        fill: none;
        stroke: #231815;
        stroke-width: .5px;
      }

      .f {
        stroke-miterlimit: 10;
      }

      .g {
        fill: #fff;
      }
    </style>
  </defs>
  <g id="c" data-name="图层 1">
    <g>
      <g>
        <path class="f" d="M11.58,56.91V.7"/>
        <path class="e" d="M9.67,2.04c.72-.12,1.79-1.43,1.91-1.79.12.36,1.19,1.67,1.91,1.79"/>
        <path class="g" d="M22.91,28.57c0-6.26-5.07-11.33-11.33-11.33S.25,22.31.25,28.57s5.07,11.33,11.33,11.33,11.33-5.07,11.33-11.33"/>
        <path class="f" d="M.25,28.57h22.66M22.91,28.57c0-6.26-5.07-11.33-11.33-11.33S.25,22.31.25,28.57s5.07,11.33,11.33,11.33,11.33-5.07,11.33-11.33Z"/>
      </g>
      <text class="d" transform="translate(8.11 26.31)"><tspan x="0" y="0">N</tspan></text>
      <text class="d" transform="translate(9.46 37.24)"><tspan x="0" y="0">S</tspan></text>
    </g>
  </g>
</svg>